<?xml version="1.0" standalone="no"?>
<!DOCTYPE svg PUBLIC "-//W3C//DTD SVG 20010904//EN"
 "http://www.w3.org/TR/2001/REC-SVG-20010904/DTD/svg10.dtd">
<svg version="1.0" xmlns="http://www.w3.org/2000/svg"
 width="360.000000pt" height="360.000000pt" viewBox="0 0 360.000000 360.000000"
 preserveAspectRatio="xMidYMid meet">

<g transform="translate(0.000000,360.000000) scale(0.100000,-0.100000)"
fill="#000000" stroke="none">
<path d="M1740 3406 c0 -2 11 -6 25 -8 13 -3 22 -1 19 3 -5 9 -44 13 -44 5z"/>
<path d="M1811 3406 c2 -2 22 -6 44 -9 28 -5 34 -4 20 3 -19 8 -73 14 -64 6z"/>
<path d="M1693 3390 c-34 -14 -28 -21 7 -9 17 6 30 13 30 15 0 6 -12 4 -37 -6z"/>
<path d="M1628 3354 c-32 -17 -34 -21 -13 -21 8 0 22 9 32 19 19 22 17 22 -19
2z"/>
<path d="M1940 3366 c0 -3 9 -10 20 -16 11 -6 20 -8 20 -6 0 3 -9 10 -20 16
-11 6 -20 8 -20 6z"/>
<path d="M2002 3324 c10 -10 20 -15 24 -12 3 4 -5 12 -18 18 -22 12 -22 12 -6
-6z"/>
<path d="M1558 3314 c-38 -20 -36 -28 2 -9 17 9 30 18 30 20 0 7 -1 6 -32 -11z"/>
<path d="M1490 3270 c-14 -11 -20 -20 -14 -20 6 0 19 9 29 20 23 25 17 25 -15
0z"/>
<path d="M1439 3243 c-13 -16 -12 -17 4 -4 16 13 21 21 13 21 -2 0 -10 -8 -17
-17z"/>
<path d="M2130 3252 c0 -6 9 -12 20 -15 11 -3 20 -3 20 -1 0 2 -9 8 -20 14
-11 6 -20 7 -20 2z"/>
<path d="M1764 3205 c-17 -13 -16 -13 12 -3 28 10 37 8 78 -16 25 -15 46 -25
46 -22 0 9 -86 56 -101 56 -9 0 -24 -7 -35 -15z"/>
<path d="M2250 3181 c14 -11 30 -21 35 -21 11 0 -7 14 -40 31 -13 7 -12 3 5
-10z"/>
<path d="M1318 3174 c-16 -8 -28 -16 -28 -18 0 -9 40 7 51 20 14 17 11 17 -23
-2z"/>
<path d="M1695 3170 c-4 -6 -12 -7 -18 -4 -8 5 -8 2 1 -7 10 -11 15 -10 29 4
10 10 12 17 6 17 -7 0 -15 -5 -18 -10z"/>
<path d="M1910 3153 c0 -1 19 -12 43 -23 25 -13 34 -15 23 -5 -11 8 -24 15
-29 15 -4 0 -6 4 -3 8 2 4 -4 8 -15 8 -10 0 -19 -1 -19 -3z"/>
<path d="M1630 3129 c-17 -13 -18 -17 -5 -10 33 17 51 31 40 31 -5 0 -21 -10
-35 -21z"/>
<path d="M2340 3130 c0 -5 5 -10 11 -10 5 0 7 5 4 10 -3 6 -8 10 -11 10 -2 0
-4 -4 -4 -10z"/>
<path d="M1187 3099 c-22 -11 -37 -23 -34 -25 5 -5 77 35 77 42 0 6 -1 5 -43
-17z"/>
<path d="M2375 3113 c6 -6 37 -26 70 -44 33 -18 56 -28 50 -22 -5 5 -37 25
-70 43 -33 18 -55 28 -50 23z"/>
<path d="M1570 3102 c0 -6 -8 -13 -17 -16 -10 -4 -29 -16 -43 -27 l-25 -20 30
15 c45 22 71 43 62 52 -4 4 -7 2 -7 -4z"/>
<path d="M2012 3094 c10 -10 20 -15 24 -12 3 4 -5 12 -18 18 -22 12 -22 12 -6
-6z"/>
<path d="M1098 3045 c-20 -14 -41 -25 -47 -25 -5 0 -13 -4 -16 -10 -9 -14 23
-1 68 28 32 22 44 32 34 32 -1 0 -19 -11 -39 -25z"/>
<path d="M2070 3066 c0 -3 9 -10 20 -16 11 -6 20 -8 20 -6 0 3 -9 10 -20 16
-11 6 -20 8 -20 6z"/>
<path d="M1445 3024 c-16 -8 -41 -24 -55 -35 -18 -14 -10 -12 25 7 71 39 94
61 30 28z"/>
<path d="M2130 3030 c35 -24 54 -31 30 -11 -14 11 -29 21 -35 21 -5 0 -3 -5 5
-10z"/>
<path d="M2510 3036 c0 -2 7 -9 15 -16 9 -7 15 -8 15 -2 0 5 -7 12 -15 16 -8
3 -15 4 -15 2z"/>
<path d="M994 2984 c-18 -15 -18 -15 2 -5 12 6 25 7 29 3 5 -4 5 -1 1 6 -9 15
-8 15 -32 -4z"/>
<path d="M2197 2989 c7 -7 15 -10 18 -7 3 3 -2 9 -12 12 -14 6 -15 5 -6 -5z"/>
<path d="M2585 2990 c3 -5 29 -22 58 -38 28 -15 69 -38 91 -51 21 -12 40 -20
42 -18 2 2 -41 29 -96 60 -56 31 -98 52 -95 47z"/>
<path d="M1318 2949 c-21 -11 -38 -22 -38 -24 0 -3 18 4 40 15 22 11 40 23 40
25 0 7 0 7 -42 -16z"/>
<path d="M915 2940 c-16 -11 -25 -20 -20 -20 10 0 64 39 55 40 -3 0 -18 -9
-35 -20z"/>
<path d="M2310 2925 c0 -2 10 -10 23 -16 20 -11 21 -11 8 4 -13 16 -31 23 -31
12z"/>
<path d="M845 2900 c-16 -11 -25 -20 -20 -20 10 0 64 39 55 40 -3 0 -18 -9
-35 -20z"/>
<path d="M1211 2890 c-61 -41 -65 -48 -6 -15 54 30 75 45 60 44 -6 0 -30 -13
-54 -29z"/>
<path d="M2376 2885 c10 -8 23 -15 28 -15 6 0 1 7 -10 15 -10 8 -23 15 -28 15
-6 0 -1 -7 10 -15z"/>
<path d="M2795 2870 c7 -11 65 -43 65 -36 0 2 -16 13 -36 25 -19 12 -32 16
-29 11z"/>
<path d="M2420 2865 c0 -6 77 -55 86 -55 8 0 -32 30 -64 48 -12 7 -22 10 -22
7z"/>
<path d="M1093 2819 c-29 -17 -53 -33 -53 -36 0 -5 89 44 105 58 16 16 1 9
-52 -22z"/>
<path d="M664 2795 c-10 -8 -14 -14 -9 -15 15 0 40 18 34 24 -3 3 -14 -1 -25
-9z"/>
<path d="M2532 2794 c10 -10 20 -15 24 -12 3 4 -5 12 -18 18 -22 12 -22 12 -6
-6z"/>
<path d="M2910 2806 c0 -3 9 -10 20 -16 11 -6 20 -8 20 -6 0 3 -9 10 -20 16
-11 6 -20 8 -20 6z"/>
<path d="M2576 2776 c4 -11 54 -41 54 -33 0 2 -13 13 -30 25 -17 13 -27 17
-24 8z"/>
<path d="M594 2754 c-18 -14 -18 -15 4 -4 12 6 22 13 22 15 0 8 -5 6 -26 -11z"/>
<path d="M984 2754 c-18 -14 -18 -15 4 -4 12 6 22 13 22 15 0 8 -5 6 -26 -11z"/>
<path d="M2992 2754 c10 -10 20 -16 22 -13 3 3 -5 11 -17 18 -21 13 -21 12 -5
-5z"/>
<path d="M2640 2736 c0 -3 9 -10 20 -16 11 -6 20 -8 20 -6 0 3 -9 10 -20 16
-11 6 -20 8 -20 6z"/>
<path d="M506 2705 c-11 -8 -15 -15 -10 -15 6 0 19 7 30 15 10 8 15 14 9 14
-5 0 -19 -6 -29 -14z"/>
<path d="M904 2710 c-12 -5 -25 -13 -28 -19 -4 -5 7 -3 24 5 16 9 30 17 30 20
0 5 0 5 -26 -6z"/>
<path d="M2710 2690 c33 -26 52 -25 21 0 -13 11 -28 20 -35 20 -6 0 0 -9 14
-20z"/>
<path d="M3137 2667 c18 -16 30 -34 26 -40 -3 -5 -1 -7 4 -4 6 4 20 -14 31
-41 12 -26 21 -41 22 -34 1 35 -52 108 -100 137 -9 6 -1 -3 17 -18z"/>
<path d="M442 2658 c-29 -31 -68 -105 -59 -114 2 -3 12 15 21 39 17 45 68 101
82 89 4 -4 4 -1 0 6 -9 16 -7 17 -44 -20z"/>
<path d="M835 2670 c-3 -6 1 -7 9 -4 18 7 21 14 7 14 -6 0 -13 -4 -16 -10z"/>
<path d="M2775 2657 c45 -30 95 -58 95 -54 0 6 -98 67 -107 67 -4 0 1 -6 12
-13z"/>
<path d="M733 2611 c-17 -11 -35 -17 -39 -13 -4 4 -4 2 0 -5 5 -9 16 -7 41 8
19 12 35 23 35 25 0 6 -3 5 -37 -15z"/>
<path d="M2903 2584 c8 -8 30 -21 78 -47 19 -10 26 -12 17 -4 -10 8 -14 18
-10 22 4 5 1 5 -6 1 -7 -5 -21 -2 -30 7 -17 14 -62 34 -49 21z"/>
<path d="M665 2570 c-3 -6 1 -7 9 -4 18 7 21 14 7 14 -6 0 -13 -4 -16 -10z"/>
<path d="M620 2545 c-14 -8 -20 -14 -14 -15 5 0 19 7 30 15 24 18 16 19 -16 0z"/>
<path d="M370 1806 c0 -399 3 -727 8 -729 4 -3 7 323 7 724 0 401 -3 729 -7
729 -5 0 -8 -326 -8 -724z"/>
<path d="M3220 2442 l5 -87 3 79 c2 44 -1 83 -5 87 -4 4 -6 -31 -3 -79z"/>
<path d="M2013 2423 c15 -2 39 -2 55 0 15 2 2 4 -28 4 -30 0 -43 -2 -27 -4z"/>
<path d="M2148 2423 c7 -3 16 -2 19 1 4 3 -2 6 -13 5 -11 0 -14 -3 -6 -6z"/>
<path d="M2188 2423 c6 -2 18 -2 25 0 6 3 1 5 -13 5 -14 0 -19 -2 -12 -5z"/>
<path d="M2238 2423 c7 -3 16 -2 19 1 4 3 -2 6 -13 5 -11 0 -14 -3 -6 -6z"/>
<path d="M2293 2413 c9 -2 23 -2 30 0 6 3 -1 5 -18 5 -16 0 -22 -2 -12 -5z"/>
<path d="M1898 2403 c7 -3 16 -2 19 1 4 3 -2 6 -13 5 -11 0 -14 -3 -6 -6z"/>
<path d="M2360 2400 c34 -11 60 -11 35 0 -11 5 -29 8 -40 8 -16 0 -15 -2 5 -8z"/>
<path d="M1227 2393 c-3 -5 26 -6 65 -5 96 5 118 -2 119 -36 2 -24 2 -25 6 -4
8 42 -12 52 -103 52 -45 0 -85 -3 -87 -7z"/>
<path d="M1815 2380 c-22 -11 -29 -17 -16 -14 38 10 88 33 71 33 -8 0 -33 -8
-55 -19z"/>
<path d="M2455 2370 c-4 -6 -3 -9 2 -8 12 4 73 -25 73 -34 0 -5 5 -8 11 -8 19
0 -2 20 -41 40 -25 13 -41 16 -45 10z"/>
<path d="M1724 2331 c-21 -15 -48 -39 -59 -52 -11 -13 -2 -8 20 11 22 19 51
43 65 52 14 9 22 17 19 17 -3 1 -24 -12 -45 -28z"/>
<path d="M3222 2320 c0 -19 2 -27 5 -17 2 9 2 25 0 35 -3 9 -5 1 -5 -18z"/>
<path d="M1215 1665 c0 -374 1 -526 2 -337 2 189 2 495 0 680 -1 185 -2 31 -2
-343z"/>
<path d="M1410 1633 c-3 -381 -2 -689 3 -684 4 4 6 315 5 692 l-3 684 -5 -692z"/>
<path d="M2572 2303 c7 -13 16 -23 20 -23 4 0 19 -17 33 -37 14 -21 25 -33 25
-26 0 6 -20 33 -45 60 -25 26 -40 38 -33 26z"/>
<path d="M3020 2285 c0 -8 4 -15 10 -15 5 0 7 7 4 15 -4 8 -8 15 -10 15 -2 0
-4 -7 -4 -15z"/>
<path d="M3218 1864 c-2 -229 0 -421 4 -427 4 -7 8 180 8 416 0 235 -2 427 -5
427 -2 0 -6 -187 -7 -416z"/>
<path d="M1626 2228 c-8 -13 -17 -34 -20 -48 -4 -16 0 -12 10 10 9 19 21 41
26 48 6 6 8 12 4 12 -3 0 -12 -10 -20 -22z"/>
<path d="M1965 2230 c-16 -7 -17 -9 -3 -9 9 -1 20 4 23 9 7 11 7 11 -20 0z"/>
<path d="M2023 2233 c15 -2 37 -2 50 0 12 2 0 4 -28 4 -27 0 -38 -2 -22 -4z"/>
<path d="M2168 2233 c18 -2 45 -2 60 0 15 2 0 4 -33 4 -33 0 -45 -2 -27 -4z"/>
<path d="M2278 2223 c6 -2 18 -2 25 0 6 3 1 5 -13 5 -14 0 -19 -2 -12 -5z"/>
<path d="M1878 2199 c-10 -5 -32 -23 -49 -38 -23 -22 -28 -31 -17 -36 7 -5 10
-5 6 -1 -7 8 41 54 77 74 11 6 16 11 10 11 -5 0 -18 -4 -27 -10z"/>
<path d="M2390 2186 c0 -2 8 -10 18 -17 15 -13 16 -12 3 4 -13 16 -21 21 -21
13z"/>
<path d="M2430 2153 c0 -6 8 -17 18 -24 16 -13 16 -13 2 6 -8 11 -16 22 -17
24 -2 2 -3 0 -3 -6z"/>
<path d="M1592 2130 c0 -14 2 -19 5 -12 2 6 2 18 0 25 -3 6 -5 1 -5 -13z"/>
<path d="M2680 2116 c0 -8 4 -17 9 -20 5 -4 7 3 4 14 -6 23 -13 26 -13 6z"/>
<path d="M2478 2063 c8 -26 19 -54 25 -60 10 -14 182 -19 190 -5 3 4 -38 7
-91 7 l-96 0 -13 44 c-7 25 -17 49 -22 54 -5 5 -2 -13 7 -40z"/>
<path d="M1803 2065 c0 -22 2 -30 4 -17 2 12 2 30 0 40 -3 9 -5 -1 -4 -23z"/>
<path d="M1583 2050 c0 -25 2 -35 4 -22 2 12 2 32 0 45 -2 12 -4 2 -4 -23z"/>
<path d="M2691 2064 c0 -11 3 -14 6 -6 3 7 2 16 -1 19 -3 4 -6 -2 -5 -13z"/>
<path d="M1810 2014 c0 -12 11 -26 35 -44 15 -11 14 -7 -5 15 -14 17 -26 32
-27 34 -2 2 -3 0 -3 -5z"/>
<path d="M1590 1974 c0 -10 5 -26 10 -34 8 -11 9 -7 4 15 -8 37 -14 45 -14 19z"/>
<path d="M1875 1961 c6 -5 24 -13 40 -17 39 -9 30 0 -15 15 -19 6 -30 7 -25 2z"/>
<path d="M1951 1936 c3 -3 23 -8 45 -12 21 -3 36 -3 33 0 -3 3 -23 8 -45 12
-21 3 -36 3 -33 0z"/>
<path d="M2053 1913 c9 -2 25 -2 35 0 9 3 1 5 -18 5 -19 0 -27 -2 -17 -5z"/>
<path d="M2120 1906 c0 -2 11 -6 25 -8 13 -3 22 -1 19 3 -5 9 -44 13 -44 5z"/>
<path d="M1620 1898 c0 -17 76 -91 112 -109 21 -11 38 -17 38 -14 0 2 -15 12
-32 20 -18 9 -52 37 -75 63 -24 26 -43 44 -43 40z"/>
<path d="M2180 1896 c0 -9 39 -13 51 -5 10 6 4 9 -18 9 -18 0 -33 -2 -33 -4z"/>
<path d="M2260 1886 c0 -2 13 -6 29 -8 17 -2 28 -1 25 4 -5 8 -54 12 -54 4z"/>
<path d="M2338 1873 c6 -2 18 -2 25 0 6 3 1 5 -13 5 -14 0 -19 -2 -12 -5z"/>
<path d="M2382 1864 c4 -3 17 -7 30 -9 12 -1 37 -5 53 -9 28 -6 27 -5 -5 8
-35 14 -89 21 -78 10z"/>
<path d="M2515 1830 c27 -12 43 -12 25 0 -8 5 -22 9 -30 9 -10 0 -8 -3 5 -9z"/>
<path d="M2561 1816 c10 -9 69 -36 69 -32 0 6 -55 36 -66 36 -4 0 -5 -2 -3 -4z"/>
<path d="M1805 1756 c17 -7 46 -16 65 -19 30 -6 29 -4 -9 8 -66 22 -90 26 -56
11z"/>
<path d="M2668 1741 c15 -16 35 -40 45 -53 l18 -23 -13 25 c-16 30 -59 80 -70
80 -4 0 5 -13 20 -29z"/>
<path d="M1916 1730 c5 -4 29 -11 54 -14 53 -7 44 -1 -19 13 -24 5 -39 6 -35
1z"/>
<path d="M2030 1708 c0 -4 16 -8 35 -8 19 0 35 2 35 4 0 2 -16 6 -35 8 -19 2
-35 0 -35 -4z"/>
<path d="M2148 1693 c12 -2 30 -2 40 0 9 3 -1 5 -23 4 -22 0 -30 -2 -17 -4z"/>
<path d="M3023 1675 c0 -14 3 -27 7 -30 4 -2 6 7 4 21 -3 35 -11 41 -11 9z"/>
<path d="M2223 1683 c9 -2 25 -2 35 0 9 3 1 5 -18 5 -19 0 -27 -2 -17 -5z"/>
<path d="M2288 1673 c6 -2 18 -2 25 0 6 3 1 5 -13 5 -14 0 -19 -2 -12 -5z"/>
<path d="M2348 1663 c7 -3 16 -2 19 1 4 3 -2 6 -13 5 -11 0 -14 -3 -6 -6z"/>
<path d="M2410 1656 c0 -3 14 -12 30 -21 17 -9 30 -13 30 -11 0 3 -13 12 -30
21 -16 9 -30 13 -30 11z"/>
<path d="M2727 1639 c4 -13 8 -18 11 -10 2 7 -1 18 -6 23 -8 8 -9 4 -5 -13z"/>
<path d="M2498 1599 c12 -14 22 -33 22 -42 0 -9 4 -18 9 -21 20 -13 -4 45 -28
66 l-26 23 23 -26z"/>
<path d="M2735 1527 c0 -45 -4 -95 -8 -112 -6 -26 -6 -27 4 -11 14 24 25 206
13 206 -5 0 -9 -37 -9 -83z"/>
<path d="M1546 1574 c-8 -22 -8 -49 1 -40 4 4 8 15 8 24 0 15 13 17 95 17 l95
0 6 -30 c5 -22 7 -24 8 -8 3 49 -5 53 -109 53 -80 0 -99 -3 -104 -16z"/>
<path d="M2518 1476 c-2 -19 -1 -33 3 -30 10 6 17 54 9 59 -4 3 -10 -11 -12
-29z"/>
<path d="M1552 1480 c0 -14 2 -19 5 -12 2 6 2 18 0 25 -3 6 -5 1 -5 -13z"/>
<path d="M1770 1470 c6 -11 13 -20 16 -20 2 0 0 9 -6 20 -6 11 -13 20 -16 20
-2 0 0 -9 6 -20z"/>
<path d="M1560 1443 c0 -34 52 -126 98 -170 38 -38 37 -26 -2 17 -20 23 -34
46 -30 52 4 6 3 8 -3 5 -10 -6 -14 0 -47 73 -8 19 -16 30 -16 23z"/>
<path d="M1809 1416 c17 -18 19 -25 9 -29 -7 -3 -3 -4 9 -4 23 1 22 1 -4 29
-15 15 -29 28 -32 28 -2 0 6 -11 18 -24z"/>
<path d="M2484 1409 c-10 -12 -35 -29 -54 -40 -19 -10 -29 -18 -22 -19 17 0
102 58 102 70 0 14 -5 12 -26 -11z"/>
<path d="M3220 1248 c-3 -97 -2 -174 3 -169 4 4 6 84 5 177 l-3 169 -5 -177z"/>
<path d="M3021 1384 c0 -11 3 -14 6 -6 3 7 2 16 -1 19 -3 4 -6 -2 -5 -13z"/>
<path d="M1874 1366 c11 -9 27 -16 35 -15 14 0 14 1 1 6 -8 3 -24 10 -35 15
-20 9 -20 9 -1 -6z"/>
<path d="M2356 1341 c-4 -5 3 -7 14 -4 23 6 26 13 6 13 -8 0 -17 -4 -20 -9z"/>
<path d="M1970 1333 c0 -5 13 -8 29 -8 16 0 27 3 24 8 -2 4 -15 7 -29 7 -13 0
-24 -3 -24 -7z"/>
<path d="M2280 1330 c-20 -6 -21 -8 -5 -8 11 0 31 4 45 8 20 6 21 8 5 8 -11 0
-31 -4 -45 -8z"/>
<path d="M2088 1323 c28 -2 76 -2 105 0 28 2 5 3 -53 3 -58 0 -81 -1 -52 -3z"/>
<path d="M2651 1286 l-24 -31 28 27 c16 15 27 29 24 31 -2 3 -15 -10 -28 -27z"/>
<path d="M2606 1251 c-4 -5 -27 -19 -52 -31 -25 -12 -43 -24 -41 -27 6 -6 83
36 98 53 6 8 9 14 6 14 -3 0 -8 -4 -11 -9z"/>
<path d="M1705 1240 c8 -13 86 -53 91 -47 2 2 -18 16 -46 30 -28 15 -48 22
-45 17z"/>
<path d="M1820 1180 c8 -5 22 -9 30 -9 10 0 8 3 -5 9 -27 12 -43 12 -25 0z"/>
<path d="M2427 1173 c-32 -9 -56 -17 -54 -20 6 -5 116 23 125 31 8 8 -4 6 -71
-11z"/>
<path d="M1890 1160 c8 -5 24 -10 34 -10 26 0 18 6 -19 14 -22 5 -26 4 -15 -4z"/>
<path d="M3021 1144 c0 -11 3 -14 6 -6 3 7 2 16 -1 19 -3 4 -6 -2 -5 -13z"/>
<path d="M1978 1143 c6 -2 18 -2 25 0 6 3 1 5 -13 5 -14 0 -19 -2 -12 -5z"/>
<path d="M2306 1142 c-3 -5 8 -6 25 -4 16 2 29 6 29 8 0 8 -49 4 -54 -4z"/>
<path d="M2103 1133 c31 -2 83 -2 115 0 31 2 5 3 -58 3 -63 0 -89 -1 -57 -3z"/>
<path d="M3011 1087 c-13 -21 -12 -21 5 -5 10 10 16 20 13 22 -3 3 -11 -5 -18
-17z"/>
<path d="M570 1096 c0 -2 8 -10 18 -17 15 -13 16 -12 3 4 -13 16 -21 21 -21
13z"/>
<path d="M618 1058 c11 -14 52 -31 52 -22 0 2 -15 11 -32 20 -28 14 -31 15
-20 2z"/>
<path d="M2944 1044 c-18 -14 -18 -15 4 -4 12 6 22 13 22 15 0 8 -5 6 -26 -11z"/>
<path d="M3202 1033 c-25 -57 -43 -83 -71 -102 -16 -11 -32 -17 -36 -13 -5 4
-5 1 -1 -6 6 -10 15 -8 39 11 35 27 91 111 85 127 -2 6 -9 -2 -16 -17z"/>
<path d="M390 1021 c0 -6 4 -13 10 -16 6 -3 7 1 4 9 -7 18 -14 21 -14 7z"/>
<path d="M701 1011 c13 -10 44 -28 69 -40 42 -21 44 -21 20 -2 -14 11 -29 21
-35 21 -5 0 -21 9 -35 20 -14 11 -29 20 -34 20 -5 0 2 -8 15 -19z"/>
<path d="M2896 1017 c-16 -12 -16 -14 -3 -14 9 0 18 6 21 14 3 7 4 13 3 13 -2
0 -11 -6 -21 -13z"/>
<path d="M410 983 c0 -5 12 -20 28 -34 l27 -24 -25 30 c-14 17 -26 32 -27 34
-2 2 -3 0 -3 -6z"/>
<path d="M824 941 c4 -7 18 -17 29 -22 12 -5 36 -18 52 -28 17 -11 37 -20 45
-20 8 -1 4 5 -10 12 -14 7 -47 26 -74 42 -27 16 -46 23 -42 16z"/>
<path d="M1167 913 c-16 -18 -25 -33 -20 -32 9 0 57 58 52 63 -2 2 -17 -12
-32 -31z"/>
<path d="M2754 934 c-18 -14 -18 -15 4 -4 12 6 22 13 22 15 0 8 -5 6 -26 -11z"/>
<path d="M474 921 c4 -6 16 -16 28 -22 15 -8 18 -8 14 0 -4 6 -16 16 -28 22
-15 8 -18 8 -14 0z"/>
<path d="M1396 899 c-8 -42 0 -50 9 -9 4 17 5 34 2 36 -2 3 -7 -10 -11 -27z"/>
<path d="M2684 895 c-18 -14 -18 -14 4 -8 12 3 22 9 22 14 0 12 -3 11 -26 -6z"/>
<path d="M3043 879 c-18 -12 -33 -23 -33 -25 0 -5 44 18 70 35 29 20 -5 10
-37 -10z"/>
<path d="M540 880 c35 -24 54 -31 30 -11 -14 11 -29 21 -35 21 -5 0 -3 -5 5
-10z"/>
<path d="M2618 860 c-20 -11 -39 -24 -43 -29 -3 -6 15 2 40 15 25 14 45 28 45
30 0 6 -1 5 -42 -16z"/>
<path d="M1043 853 c9 -2 23 -2 30 0 6 3 -1 5 -18 5 -16 0 -22 -2 -12 -5z"/>
<path d="M1371 821 c-14 -31 -62 -86 -101 -114 -23 -17 -23 -17 8 0 45 24 124
125 109 139 -2 3 -10 -8 -16 -25z"/>
<path d="M630 831 c0 -5 7 -12 16 -15 14 -5 15 -4 4 9 -14 17 -20 19 -20 6z"/>
<path d="M2908 799 c-21 -11 -38 -22 -38 -24 0 -3 18 4 40 15 22 11 40 23 40
25 0 7 0 7 -42 -16z"/>
<path d="M690 796 c0 -3 9 -10 20 -16 11 -6 20 -8 20 -6 0 3 -9 10 -20 16 -11
6 -20 8 -20 6z"/>
<path d="M2494 784 c-18 -14 -18 -15 4 -4 12 6 22 13 22 15 0 8 -5 6 -26 -11z"/>
<path d="M2412 738 c-29 -17 -51 -32 -49 -34 5 -5 95 45 102 57 8 12 7 12 -53
-23z"/>
<path d="M2835 760 c-4 -6 -11 -8 -16 -5 -5 4 -9 2 -9 -4 0 -6 -14 -18 -31
-26 -17 -9 -28 -19 -26 -22 3 -3 19 4 35 16 17 12 34 21 40 21 5 0 15 7 22 15
8 9 9 15 2 15 -6 0 -14 -5 -17 -10z"/>
<path d="M760 756 c0 -3 9 -10 20 -16 11 -6 20 -8 20 -6 0 3 -9 10 -20 16 -11
6 -20 8 -20 6z"/>
<path d="M850 706 c28 -17 50 -21 35 -7 -6 5 -21 12 -35 15 l-25 7 25 -15z"/>
<path d="M2318 684 c-38 -20 -36 -28 2 -9 17 9 30 18 30 20 0 7 -1 6 -32 -11z"/>
<path d="M2700 679 c-17 -13 -18 -17 -5 -10 33 17 51 31 40 31 -5 0 -21 -10
-35 -21z"/>
<path d="M1137 668 c-17 -11 33 -9 58 2 16 7 13 8 -13 7 -19 -1 -39 -5 -45 -9z"/>
<path d="M1019 657 c5 -5 30 -7 57 -5 l49 3 -57 5 c-31 3 -53 1 -49 -3z"/>
<path d="M2242 640 c-42 -23 -49 -30 -25 -24 16 5 75 44 63 43 -3 0 -20 -9
-38 -19z"/>
<path d="M2601 624 c-30 -18 -59 -31 -64 -27 -6 3 -7 1 -3 -5 4 -7 3 -12 -1
-12 -5 0 -18 -7 -29 -16 -10 -8 -14 -14 -9 -11 25 11 175 99 175 103 0 9 -17
1 -69 -32z"/>
<path d="M2164 594 c-18 -14 -18 -15 4 -4 12 6 22 13 22 15 0 8 -5 6 -26 -11z"/>
<path d="M1424 564 c-18 -14 -18 -14 6 -3 31 14 36 19 24 19 -6 0 -19 -7 -30
-16z"/>
<path d="M2114 564 c-18 -14 -18 -15 4 -4 12 6 22 13 22 15 0 8 -5 6 -26 -11z"/>
<path d="M1500 557 c0 -6 78 -57 87 -57 4 0 3 4 -2 8 -16 14 -85 54 -85 49z"/>
<path d="M1375 541 c-3 -5 0 -13 6 -17 7 -4 9 -3 5 4 -3 5 0 13 6 15 9 4 10 6
1 6 -6 1 -14 -3 -18 -8z"/>
<path d="M2050 530 c-14 -11 -20 -20 -13 -20 6 0 15 5 18 10 4 6 11 7 17 4 6
-4 8 -2 4 4 -3 5 0 13 6 15 7 3 9 6 3 6 -5 0 -21 -8 -35 -19z"/>
<path d="M2445 541 c3 -2 -3 -10 -13 -18 -12 -10 -8 -9 16 2 37 18 39 21 12
21 -10 0 -17 -2 -15 -5z"/>
<path d="M1305 510 c-22 -11 -31 -17 -20 -14 11 4 30 9 43 11 12 3 25 9 28 14
8 14 -7 10 -51 -11z"/>
<path d="M1994 494 c-18 -14 -18 -15 4 -4 12 6 22 13 22 15 0 8 -5 6 -26 -11z"/>
<path d="M2384 494 c-18 -14 -18 -15 4 -4 12 6 22 13 22 15 0 8 -5 6 -26 -11z"/>
<path d="M1600 496 c0 -3 9 -10 20 -16 11 -6 20 -8 20 -6 0 3 -9 10 -20 16
-11 6 -20 8 -20 6z"/>
<path d="M1250 482 c0 -4 10 -13 23 -21 22 -14 22 -14 3 8 -20 22 -26 25 -26
13z"/>
<path d="M2319 459 c-19 -16 -20 -18 -4 -10 34 17 51 31 39 31 -7 0 -22 -9
-35 -21z"/>
<path d="M1670 456 c0 -3 9 -10 20 -16 11 -6 20 -8 20 -6 0 3 -9 10 -20 16
-11 6 -20 8 -20 6z"/>
<path d="M1904 444 c-18 -14 -18 -14 6 -3 31 14 36 19 24 19 -6 0 -19 -7 -30
-16z"/>
<path d="M1300 446 c0 -3 9 -10 20 -16 11 -6 20 -8 20 -6 0 3 -9 10 -20 16
-11 6 -20 8 -20 6z"/>
<path d="M2264 424 c-18 -14 -18 -15 4 -4 12 6 22 13 22 15 0 8 -5 6 -26 -11z"/>
<path d="M1740 411 c14 -11 30 -21 35 -21 11 0 -7 14 -40 31 -13 7 -12 3 5
-10z"/>
<path d="M1845 409 c-16 -10 -25 -19 -19 -19 7 0 22 9 35 20 30 24 23 24 -16
-1z"/>
<path d="M1375 403 c20 -19 88 -57 81 -45 -4 7 -26 22 -49 33 -23 12 -37 17
-32 12z"/>
<path d="M2174 374 c-18 -14 -18 -15 4 -4 12 6 22 13 22 15 0 8 -5 6 -26 -11z"/>
<path d="M2110 339 c-17 -13 -18 -17 -5 -10 33 17 51 31 40 31 -5 0 -21 -10
-35 -21z"/>
<path d="M1470 346 c0 -3 14 -12 30 -21 17 -9 30 -13 30 -11 0 3 -13 12 -30
21 -16 9 -30 13 -30 11z"/>
<path d="M2048 304 c-38 -20 -36 -28 2 -9 17 9 30 18 30 20 0 7 -1 6 -32 -11z"/>
<path d="M1555 295 c11 -9 34 -23 50 -31 17 -8 41 -22 55 -31 20 -15 23 -15
13 -2 -7 9 -9 20 -5 24 4 5 2 5 -4 2 -15 -9 -66 17 -56 28 4 5 2 5 -5 1 -7 -4
-25 1 -40 10 -27 15 -27 15 -8 -1z"/>
<path d="M1986 265 c-11 -8 -15 -15 -9 -15 6 0 16 7 23 15 16 19 11 19 -14 0z"/>
<path d="M1910 225 c-25 -13 -41 -24 -37 -25 11 0 87 39 87 45 0 7 0 7 -50
-20z"/>
<path d="M1715 206 c17 -9 55 -15 90 -14 l60 1 -70 7 c-38 4 -79 10 -90 14
-11 3 -6 0 10 -8z"/>
</g>
</svg>
